<svg width="32" height="55" viewBox="0 0 32 55" fill="none" xmlns="http://www.w3.org/2000/svg">
<path d="M1.71045 19.6831C2.60696 19.1485 3.6871 16.9936 5.30461 14.8306C6.75323 12.8935 7.82403 10.5128 9.71427 8.79806C11.6046 7.08321 12.8683 5.11209 14.664 2.94911C15.1543 2.35853 15.7414 1.87168 16.2842 1.68535C18.6526 0.872311 21.4986 5.09049 23.3969 7.16435C25.8245 9.23282 28.1684 11.3985 29.2459 12.1168C29.7886 12.4786 30.3233 12.8351 30.8742 13.7424" stroke="white" stroke-width="2" stroke-linecap="round"/>
<path d="M20.0729 53.1674C19.8947 51.0125 19.5329 48.5012 18.1881 40.6027C17.7344 32.1101 17.3726 27.8166 16.9243 20.8956C16.8325 17.053 16.8325 10.1023 16.8325 2.94101" stroke="white" stroke-width="2" stroke-linecap="round"/>
</svg>
