<svg width="31" height="53" viewBox="0 0 31 53" fill="none" xmlns="http://www.w3.org/2000/svg">
<path d="M12.4176 51.2693C12.4176 48.6984 12.2463 43.3203 12.1153 41.3318C12.0865 40.8935 11.9869 40.6378 11.9428 36.4817C11.8987 32.3256 11.8987 24.278 11.8559 20.0038C11.8105 15.4712 11.6393 14.8657 11.5965 14.2185C11.3494 10.4832 11.2086 3.88655 11.0776 2.32865C11.0481 1.97834 10.9492 1.72288 10.9051 1.76179C10.1446 2.43278 10.3421 3.78796 9.91145 4.82699C9.5014 5.8163 8.96193 7.41483 7.9242 8.80409C7.02927 10.0022 7.31712 11.3115 6.97078 12.3933C6.56591 13.658 6.01996 14.6841 5.24296 15.7232C4.54709 16.6537 4.03271 17.7973 3.34002 18.8364C2.58136 19.9743 1.86904 21.17 1.30736 22.209C1.1686 22.4657 1.09074 22.7265 1.08944 22.7304C0.832773 23.5004 2.38271 21.1803 3.03259 20.1413C3.62119 19.2002 3.59686 18.0671 4.07032 17.0281C4.54423 15.9881 4.89402 14.9539 5.19496 13.9149C5.62156 12.442 7.0525 11.0625 7.74519 10.0234C8.43787 8.9844 9.12796 7.94926 9.64813 6.6949C10.1593 5.46217 10.944 4.57664 11.6367 3.32228C11.8063 3.0151 11.9817 2.76061 12.1127 2.75672C13.0568 2.72867 13.1907 4.99692 13.799 6.16696C14.5575 7.62566 15.9562 9.05963 17.4713 10.7057C18.4901 11.8126 19.6765 13.0393 21.2733 14.7243C23.9714 17.5715 25.2958 18.3162 26.5087 19.3552C27.2831 19.8728 27.9809 20.3942 28.4985 20.8262C28.7592 21.0013 29.0161 21.0869 29.5401 21.1751" stroke="white" stroke-width="2" stroke-linecap="round"/>
</svg>
