<svg width="26" height="52" viewBox="0 0 26 52" fill="none" xmlns="http://www.w3.org/2000/svg">
<path d="M10.6208 2.2737C10.6208 4.55065 10.9447 8.47644 11.1925 21.1984C11.3049 26.9657 11.9262 32.5219 12.174 35.0614C12.255 35.638 12.4169 36.1238 12.5003 38.6412C12.5837 41.1586 12.5837 45.6929 13.0745 50.3646" stroke="white" stroke-width="2" stroke-linecap="round"/>
<path d="M1.29712 14.0511C2.11172 13.0745 3.74092 11.1165 4.72973 9.15119C5.65199 7.31811 7.01895 5.71858 7.67407 3.75323C8.0004 2.77423 8.49112 1.78788 9.22476 1.37567C11.5495 0.0694772 13.5554 4.39362 15.6017 5.78482C17.9768 7.34287 19.449 7.99553 20.9948 8.48626C22.0547 8.6531 23.6741 8.6531 24.8518 9.63455" stroke="white" stroke-width="2" stroke-linecap="round"/>
</svg>
