<svg width="26" height="57" viewBox="0 0 26 57" fill="none" xmlns="http://www.w3.org/2000/svg">
<path d="M9.81909 6.99663C9.81909 8.96592 10.0154 12.9342 10.1657 17.3919C10.2064 18.6005 10.414 20.27 10.4631 22.5486C10.5697 27.4948 10.9079 34.8522 11.0581 37.3793C11.5028 39.3144 11.9996 41.2033 12.1483 44.0056C12.1989 46.5133 12.1989 51.2253 12.7938 55.4851" stroke="white" stroke-width="2" stroke-linecap="round"/>
<path d="M1.19214 24.2502C1.58481 23.0662 2.97104 20.8887 3.61954 19.4951C4.1912 18.2665 4.85704 16.7241 5.35531 15.0835C5.83397 13.5075 6.74303 11.7622 7.58489 10.2748C8.32924 8.95969 8.23041 7.40119 8.57845 5.71451C8.98116 3.76293 9.12283 2.54044 9.27306 1.39665C9.43647 0.152445 9.91412 4.61087 10.4615 5.85134C11.1157 7.33394 11.9964 8.47805 13.0376 9.96543C14.0019 11.343 14.9712 12.3452 15.8145 13.4875C16.6495 14.6185 17.6485 15.6175 19.3798 17.4499C21.5157 19.5858 22.7056 20.972 23.7958 22.0652C24.0948 22.266 24.3893 22.3642 24.6927 22.4653" stroke="white" stroke-width="2" stroke-linecap="round"/>
</svg>
