<svg width="31" height="52" viewBox="0 0 31 52" fill="none" xmlns="http://www.w3.org/2000/svg">
<path d="M17.3796 50.1006C17.3796 48.9747 16.5384 45.8688 15.7523 42.3252C14.8281 38.1588 14.5499 34.1165 14.2652 29.0157C14.1223 26.4551 12.5699 22.6531 12.2109 16.6261C11.8282 10.2013 11.7159 2.09294 11.2932 1.52572C11.103 1.2705 10.59 1.51934 10.3032 1.872C9.01598 3.45479 9.02641 5.47926 8.67163 7.814C8.13919 11.318 6.90199 13.4076 6.26467 15.3238C5.55342 17.4623 4.49715 19.0756 3.78547 20.7772C3.09995 22.4163 1.94359 23.3286 1.80126 23.7557C1.34267 25.1314 3.91931 20.7921 4.8413 18.81C6.35488 15.5562 7.46284 13.9939 8.45282 10.8116C9.28256 8.14429 10.8619 5.78518 11.0765 3.44194C11.1224 2.93991 11.2868 2.52207 11.4291 2.65591C12.9281 4.06539 12.5614 6.60946 13.5514 8.45558C14.504 10.2319 16.5214 11.7081 18.2931 13.2716C20.2955 15.0387 22.3253 15.8209 24.1714 16.9554C25.0191 17.5205 25.8731 18.0898 26.7908 18.5848C27.2879 18.7994 27.8488 18.9396 29.7013 19.0841" stroke="white" stroke-width="2" stroke-linecap="round"/>
</svg>
