<svg width="41" height="41" viewBox="0 0 41 41" fill="none" xmlns="http://www.w3.org/2000/svg">
<path d="M12.1667 1.75V8C12.1667 9.10507 11.7277 10.1649 10.9463 10.9463C10.1649 11.7277 9.10507 12.1667 8 12.1667H1.75M39.25 12.1667H33C31.8949 12.1667 30.8351 11.7277 30.0537 10.9463C29.2723 10.1649 28.8333 9.10507 28.8333 8V1.75M28.8333 39.25V33C28.8333 31.8949 29.2723 30.8351 30.0537 30.0537C30.8351 29.2723 31.8949 28.8333 33 28.8333H39.25M1.75 28.8333H8C9.10507 28.8333 10.1649 29.2723 10.9463 30.0537C11.7277 30.8351 12.1667 31.8949 12.1667 33V39.25" stroke="white" stroke-width="2" stroke-linecap="round" stroke-linejoin="round"/>
</svg>
