<svg width="144" height="267" viewBox="0 0 144 267" fill="none" xmlns="http://www.w3.org/2000/svg">
<path d="M70.3871 259.987C71.1432 259.253 74.9469 251.6 78.0059 250.443C80.4601 249.515 74.9928 256.916 72.6899 258.829C72.3804 259.087 74.924 258.474 75.3365 259.219C75.7489 259.964 74.2366 262.232 73.0795 262.266C71.9223 262.301 71.1662 260.032 71.9109 258.108C72.6556 256.183 74.924 254.671 76.8488 255.026C78.7736 255.381 80.2859 257.649 80.6869 259.952C81.0879 262.255 80.3317 264.523 78.8079 265.314C77.2842 266.105 75.0157 265.348 73.8471 263.447C72.6785 261.545 72.6785 258.52 73.8127 256.584C74.9469 254.648 77.2154 253.891 78.7621 254.636C80.3088 255.381 81.0649 257.649 79.5526 259.987" stroke="white" stroke-width="2" stroke-linecap="round"/>
<path d="M1.64551 23.9738C8.49675 20.9262 17.6394 14.854 28.7182 9.85882C38.547 5.42726 50.452 3.35129 71.063 1.44944C93.1871 -0.592024 103.933 7.88823 113.889 15.1634C125.459 23.6179 135.279 35.3849 139.117 44.9399C145.563 60.9873 139.908 85.0163 136.849 97.2523C133.915 108.988 123.914 117.875 115.86 126.674C107.762 135.52 95.6382 141.568 86.8392 148.064C78.1274 154.496 70.4329 163.702 62.0121 172.879C58.9302 185.081 60.4425 201.877 65.0252 214.113C65.8043 217.183 65.8043 220.208 65.8043 223.324" stroke="white" stroke-width="2" stroke-linecap="round"/>
</svg>
