<svg width="133" height="314" viewBox="0 0 133 314" fill="none" xmlns="http://www.w3.org/2000/svg">
<path d="M65.817 298.066C67.3293 298.066 70.3769 298.822 73.814 302.236C75.8739 304.283 74.9826 309.431 73.8483 311.39C72.7141 313.349 70.4456 312.593 69.277 309.935C68.1084 307.277 68.1084 302.74 68.4865 301.537C68.8646 300.334 69.6207 302.603 69.6322 304.906C69.6436 307.209 68.8875 309.477 68.4979 308.755C68.1084 308.033 68.1084 304.253 70.3998 300.357" stroke="white" stroke-width="2" stroke-linecap="round"/>
<path d="M1.6582 9.35129C11.557 6.30374 23.7472 4.76852 43.1667 2.86666C70.6833 0.171817 90.9993 3.98944 95.5707 7.03699C105.111 13.3972 115.403 23.0538 121.177 32.6089C127.822 43.6046 130.709 55.1332 131.511 98.5435C131.729 110.344 126.928 114.732 123.892 120.06C115.308 135.122 94.1844 139.135 81.8911 146.433C72.8496 151.801 59.7678 155.954 49.8117 164.753C41.4788 172.118 33.7834 182.672 29.1663 194.53C24.2518 207.151 29.8881 226.208 33.7262 238.066C35.2499 243.027 37.5413 247.633 40.2108 252.204C41.3679 254.507 42.1241 256.775 47.4859 263.695" stroke="white" stroke-width="2" stroke-linecap="round"/>
</svg>
