<svg width="100" height="230" viewBox="0 0 100 230" fill="none" xmlns="http://www.w3.org/2000/svg">
<path d="M28.6791 224.947C28.6791 225.703 28.6791 226.459 29.8133 227.227C30.9476 227.994 33.2161 228.751 34.3847 227.25C35.5533 225.749 35.5533 221.968 34.419 220.398C33.2848 218.829 31.0163 219.585 30.2258 221.109C29.4353 222.633 30.1914 224.901 31.3371 224.935C32.4828 224.97 33.9951 222.701 33.64 220.777C33.2848 218.852 31.0163 217.339 29.8477 218.073C28.6791 218.806 28.6791 221.831 29.8133 222.633C30.9476 223.435 33.2161 221.922 33.2504 220.387C33.2848 218.852 31.0163 217.339 29.8477 218.073C28.6791 218.806 28.6791 221.831 29.8133 223.011C30.9476 224.191 33.2161 223.435 33.2504 222.289C33.2848 221.143 31.0163 219.631 29.4696 219.986C27.923 220.341 27.1668 222.61 27.9115 223.4C28.6562 224.191 30.9247 223.435 32.4714 221.911C34.018 220.387 34.7742 218.118 34.0295 217.328C33.2848 216.537 31.0163 217.294 28.6791 222.655" stroke="white" stroke-width="2" stroke-linecap="round"/>
<path d="M1.1825 34.7618C5.74235 28.6896 14.885 16.4765 26.3419 8.05568C36.8733 0.31511 59.842 0.390997 74.4725 3.049C79.6752 3.99422 84.4056 9.53363 89.7446 14.1049C98.3272 21.4536 98.154 34.716 98.9559 68.617C99.3156 83.8216 86.0096 88.976 80.6363 96.5948C74.0834 105.886 64.6081 105.795 59.6472 106.929C50.6915 108.977 42.4733 119.497 33.6744 126.772C30.2373 130.954 26.4107 134.804 22.9736 144.279C21.805 152.241 21.805 166.608 21.805 181.41" stroke="white" stroke-width="2" stroke-linecap="round"/>
</svg>
