<svg width="100" height="221" viewBox="0 0 100 221" fill="none" xmlns="http://www.w3.org/2000/svg">
<path d="M51.5264 204.994C51.5264 206.506 51.5264 211.822 52.6606 218.318C53.05 220.548 56.0633 219.521 57.2319 217.241C58.4005 214.961 58.4005 211.181 57.2663 208.855C56.132 206.529 53.8636 205.773 53.073 206.518C50.8796 208.584 52.3054 214.137 51.1483 217.196C50.8417 218.006 53.7719 217.23 55.3186 215.706C56.8653 214.182 57.6214 211.914 56.8767 211.123C56.132 210.333 53.8636 211.089 52.695 212.991C51.5264 214.893 51.5264 217.917 52.6606 219.097C53.7948 220.278 56.0633 219.521 56.8538 217.998C57.6444 216.474 56.8882 214.205 51.5264 209.577" stroke="white" stroke-width="2" stroke-linecap="round"/>
<path d="M1.11584 12.5175C5.6757 11.7614 14.8183 7.20151 26.2753 3.36343C32.2325 1.36774 49.8536 1.06059 72.378 2.19483C82.6159 2.71037 85.8742 9.44706 89.6894 12.8727C97.5705 19.9491 98.8664 33.0942 98.8893 46.4529C98.9116 59.4678 88.9676 67.465 81.3487 74.362C73.29 81.6573 63.8082 88.8665 54.2302 95.3626C45.7219 101.133 37.8239 110.222 33.2067 122.08C28.2922 134.702 32.4162 152.246 35.4752 163.325C36.2428 166.017 36.999 168.286 37.7666 170.589C38.5342 172.892 39.2903 175.16 40.0694 177.497" stroke="white" stroke-width="2" stroke-linecap="round"/>
</svg>
