<svg width="110" height="212" viewBox="0 0 110 212" fill="none" xmlns="http://www.w3.org/2000/svg">
<path d="M13.1287 199.828C13.1287 201.341 13.8848 205.144 16.5428 209.349C17.7388 211.241 21.4693 209.773 23.4055 208.249C25.3418 206.726 26.0979 204.457 25.3532 202.532C23.7039 198.269 19.2467 195.269 18.101 194.1C17.2841 193.267 17.7114 199.737 19.2237 202.074C20.7361 204.411 23.7607 204.411 24.1846 203.655C24.6085 202.899 22.34 201.387 20.0372 200.986C17.7343 200.585 15.4659 201.341 17.7114 202.12" stroke="white" stroke-width="2" stroke-linecap="round"/>
<path d="M1.67175 44.0142C2.42791 37.1629 5.47545 28.0203 12.3382 22.647C19.204 17.2712 26.8312 11.2015 36.0082 6.60729C51.9478 -1.3725 77.2417 1.99015 86.4187 5.42723C95.8207 8.94858 100.156 19.5422 105.151 29.8419C107.607 34.9059 109.367 50.7508 108.611 72.8856C107.963 91.8445 92.594 101.253 83.8179 107.772C78.9871 111.36 57.6045 110.464 30.4974 111.599C20.7819 112.733 19.2696 115.001 18.4905 124.488C17.7115 133.974 17.7115 150.609 17.7115 167.749" stroke="white" stroke-width="2" stroke-linecap="round"/>
</svg>
