<svg width="98" height="106" viewBox="0 0 98 106" fill="none" xmlns="http://www.w3.org/2000/svg">
<path d="M16.2842 97.181C16.2842 96.5672 16.2842 93.7955 19.5069 77.9515C22.2518 64.4568 29.1752 40.3154 32.8025 27.057C37.6927 9.18279 41.0803 5.12092 42.9405 1.6982C44.733 -1.60001 45.4145 10.348 47.7444 14.3892C50.0215 18.3389 50.3812 24.2993 53.1668 29.1125C55.3245 32.8409 57.5056 38.5483 58.752 45.0682C60.6696 55.1002 64.6301 62.712 67.2762 68.4878C69.2814 72.8647 70.8431 76.7005 72.0848 80.4255C72.3963 81.3602 72.7033 82.281 72.8614 83.3692C73.0195 84.4574 73.0195 85.6851 71.3314 85.2433C58.9353 81.9992 51.9623 74.8775 46.2237 69.762C40.862 64.9825 33.9744 60.9262 28.8636 58.1313C20.48 53.5466 18.1629 48.5188 12.7405 43.7196C8.5072 39.9728 4.82547 37.674 2.33748 36.1068C-1.34749 33.7856 13.4753 37.3392 17.3538 37.8089C18.4448 37.941 19.6697 38.2693 28.5892 38.4274C37.5088 38.5855 54.0829 38.5855 64.1558 38.2786C82.4223 37.722 88.4962 34.2513 93.4628 33.1631C94.69 32.8942 95.9369 33.005 96.1089 33.4653C97.5618 37.3527 88.8496 39.497 85.1246 41.5246C79.3244 44.6817 71.4942 50.658 66.6856 53.2995C57.3021 58.4541 48.5768 66.7485 43.4241 71.2827C39.3138 74.8997 33.9744 79.4907 30.4029 81.6718C26.1869 84.2464 22.8134 88.494 18.1629 93.9025C13.5032 98.1018 11.0199 101.813 8.8481 104.152C8.83415 104.315 9.75493 104.008 10.7036 103.692" stroke="white" stroke-width="2" stroke-linecap="round"/>
</svg>
