<svg width="90" height="111" viewBox="0 0 90 111" fill="none" xmlns="http://www.w3.org/2000/svg">
<path d="M11.8035 102.929C11.8035 100.473 12.7243 87.5452 14.8868 65.2696C17.9979 33.2221 22.6484 25.4525 24.8155 21.095C26.8558 16.9926 29.4566 11.5012 31.3307 6.99026C32.2504 4.77662 32.8793 2.48864 34.1163 1.70736C42.9647 -3.88108 47.4259 29.4054 55.1456 42.0592C66.7094 61.0141 72.5662 74.3937 73.1847 76.8678C73.8032 79.3418 74.1194 82.1414 73.5056 84.4666C73.2501 85.4343 71.664 85.2572 70.2642 84.4898C64.0301 81.0725 59.5729 77.2212 29.1311 65.6137C18.7162 61.6425 13.3847 57.987 6.71131 55.5036C4.23904 54.5837 2.51196 53.3272 1.57723 52.7087C-1.85176 50.4398 13.6265 51.1601 26.4199 48.235C35.5823 46.1401 49.9557 41.9337 58.6149 39.7247C74.8594 35.5807 84.3132 33.8047 88.373 32.8607C91.3363 32.1716 82.2112 39.9619 73.5335 47.4026C68.874 51.3978 64.5395 57.9405 56.6663 65.8183C37.8494 84.6464 30.1263 89.889 26.3873 94.2325C22.806 98.3929 18.649 102.296 15.5332 105.705C14.91 106.64 14.2962 107.561 13.5196 108.342C12.7429 109.123 11.8221 109.737 12.7336 109.439" stroke="white" stroke-width="2" stroke-linecap="round"/>
</svg>
