<svg width="114" height="95" viewBox="0 0 114 95" fill="none" xmlns="http://www.w3.org/2000/svg">
<path d="M18.8361 93.2571C19.143 90.4762 19.7662 86.7651 23.6261 74.5484C26.1576 66.5361 28.4346 57.0023 30.4529 50.0453C34.2856 36.834 35.5777 31.89 38.819 20.9103C40.8619 13.9903 42.9998 7.72627 44.8739 3.05258C45.2406 2.13807 45.4924 1.19706 46.1109 1.02964C49.8045 0.02987 59.3507 24.5609 67.6471 38.5075C75.543 51.7809 80.2033 63.4757 85.3188 72.6046C86.4519 74.6266 87.0302 75.5669 86.886 76.3482C86.7418 77.1294 85.821 77.7433 84.7328 77.9061C79.86 78.6349 62.0852 69.4469 46.3156 64.5918C39.6536 62.5408 30.9831 57.9324 20.4638 53.9144C5.11096 48.0502 2.72699 45.2088 1.48067 44.1253C0.396185 43.1824 10.7071 43.0324 29.5321 41.4978C41.6616 40.5089 58.7927 36.8938 69.4887 35.3127C92.1572 31.9617 105.911 30.9413 111.961 31.0947C113.721 31.1394 112.794 31.5551 111.705 32.1736C107.099 34.7919 102.265 37.4333 96.5217 41.3117C88.3627 46.8215 79.0314 53.5424 71.107 59.1322C59.5495 67.2849 50.7939 73.4091 44.4368 78.6641C39.8846 82.427 33.4385 85.7978 29.081 88.4439C28.1463 88.9136 27.2255 89.2206 26.4442 89.8391C25.663 90.4576 25.0491 91.3784 24.4166 91.397" stroke="white" stroke-width="2" stroke-linecap="round"/>
</svg>
