<svg width="139" height="124" viewBox="0 0 139 124" fill="none" xmlns="http://www.w3.org/2000/svg">
<path d="M33.6374 122.552C33.6374 121.631 33.6374 120.71 35.9394 111.642C38.2413 102.574 42.8453 85.3855 45.3704 75.3033C49.6225 58.3263 50.3604 49.4283 53.3134 37.9557C55.2155 30.566 57.1872 22.1581 61.2145 12.9875C62.8909 9.17004 63.4002 5.37934 63.8606 2.58908C64.0323 1.54864 65.2418 1.64039 65.7161 2.10078C68.3857 4.69188 69.2783 13.0619 83.1785 43.3548C91.5152 61.5232 95.9347 74.4663 98.8784 79.884C102.451 86.4586 104.008 91.8403 106.021 95.5653C107.914 99.0659 108.044 104.843 109.128 109.21C109.283 109.835 108.063 110.144 106.975 110.149C102.011 110.17 85.5549 103.987 69.3388 98.3881C54.3034 93.1967 41.4501 87.8409 30.7355 83.3533C17.9306 77.9901 14.1241 76.9775 10.3991 75.1266C6.53559 73.2069 3.88388 72.0201 2.18182 71.0947C1.30638 70.6187 0.786683 69.5554 1.08431 69.0811C3.09994 65.8687 8.50641 67.6766 24.569 64.4399C35.6374 62.2096 44.7612 58.692 52.0299 57.148C59.1593 55.6337 73.2126 51.5768 90.41 47.8611C102.73 45.1992 108.026 42.8805 113.444 42.1039C122.876 40.7517 128.172 38.23 133.91 35.5979C135.258 34.9799 136.542 35.1235 137.175 35.5839C137.807 36.0443 137.807 36.9651 137.5 37.8999C136.05 42.3165 127.316 47.1775 119.857 54.6228C109.436 65.0243 104.975 68.5881 98.7668 73.8571C93.3135 78.4852 87.3035 81.6093 79.7093 87.3387C67.6054 96.4703 52.9088 104.545 46.8307 108.433C42.9476 110.768 39.8504 113.232 36.5951 115.413C35.8138 116.032 35.1999 116.953 34.5675 117.901" stroke="white" stroke-width="2" stroke-linecap="round"/>
</svg>
