<svg width="121" height="111" viewBox="0 0 121 111" fill="none" xmlns="http://www.w3.org/2000/svg">
<path d="M33.6721 109.915C34.6811 99.7636 36.7297 88.5419 39.2676 78.6197C42.5054 65.9613 42.3253 57.4759 45.6352 45.2375C47.6912 37.6359 49.4497 30.446 51.7582 23.0617C55.4968 11.1032 54.0515 5.96926 55.5727 3.17149C56.3551 1.73249 58.1029 0.878227 59.3872 1.1152C65.7693 2.29285 67.7958 13.0478 73.1467 19.6906C77.5199 25.1196 79.5067 30.9046 83.3441 38.029C87.977 46.6304 90.7284 53.3174 93.5414 59.4404C96.6714 66.2532 100.941 72.6726 102.714 79.3154C104.756 86.9623 111.123 93.0673 112.155 98.938C112.393 100.294 110.145 101.231 108.608 101.247C101.771 101.315 96.3851 95.1465 90.0098 94.1222C81.6422 92.7777 74.9813 88.0221 66.3204 84.1924C58.4319 80.7041 48.991 77.3202 42.868 74.7594C36.7505 72.2009 29.6359 68.1472 21.7242 66.6031C14.7778 65.2473 9.24121 60.503 3.1182 56.6732C1.66033 55.7614 0.0681672 55.3967 2.56782 55.1368C19.8211 53.3428 25.9973 52.339 38.465 51.5669C46.5741 51.0648 59.5706 48.7615 77.137 47.4926C105.089 45.4734 122.36 48.2417 119.31 50.0228C113.494 53.4191 107.087 55.8859 101.216 59.7003C95.1576 63.6368 90.2697 69.1256 84.1467 74.4766C78.4947 79.416 71.9236 82.8852 66.0529 87.2195C60.814 91.0873 55.1064 93.5871 48.9834 97.4168C45.9334 98.6934 43.3649 100.727 41.0793 103.272C39.8027 104.304 38.2892 104.809 36.7297 106.857" stroke="white" stroke-width="2" stroke-linecap="round"/>
</svg>
