<svg width="99" height="93" viewBox="0 0 99 93" fill="none" xmlns="http://www.w3.org/2000/svg">
<path d="M19.3654 91.8377C21.207 81.6811 26.1737 63.656 27.1131 59.2986C28.1079 54.6838 30.2103 49.3885 31.7589 43.8079C34.4076 34.2628 37.0371 27.6802 38.7345 23.1832C40.1922 19.3215 41.3713 15.5891 44.0035 11.7106C46.6042 7.87848 46.6449 4.11179 47.5703 2.71201C51.4599 -3.17112 55.0064 19.8861 57.4897 24.3877C61.5076 31.671 68.9205 49.8535 73.9197 59.4241C76.8693 65.0708 81.0489 73.1987 84.3042 78.6444C84.9935 79.7975 85.6993 80.658 86.0155 81.5928C86.3318 82.5275 86.3318 83.4483 85.5644 83.9226C81.4607 86.4595 75.2079 80.379 67.1487 76.6633C53.8433 70.5288 44.8498 67.674 30.8892 61.7912C16.5171 55.735 8.22298 48.756 3.726 46.2727C2.62473 45.6645 1.71236 45.0357 2.00534 44.566C6.28528 37.7045 23.6624 42.8593 37.2882 42.2361C52.9153 41.5214 60.8846 39.7528 66.7767 38.9808C72.6462 38.2118 83.7647 37.8926 91.889 37.1206C93.7429 36.9444 96.5069 36.9625 97.4696 37.116C100.589 37.6133 88.2291 43.4545 77.9982 51.1928C71.1382 56.3815 65.2746 61.74 60.6148 64.2373C56.1674 66.6208 49.4817 72.5849 39.8599 79.1048C34.8793 82.2206 30.5451 84.6946 26.6666 87.3314C25.5784 88.108 24.3507 89.0288 21.2256 89.9775" stroke="white" stroke-width="2" stroke-linecap="round"/>
</svg>
